<svg xmlns="http://www.w3.org/2000/svg" width="263" height="144" fill="none" ><rect x="163" y="24" width="100" height="120" rx="8" fill="var(--section_colors-tertiary)"/><rect x="164" y="25" width="98" height="118" rx="7" stroke="var(--section_colors-stroke)" stroke-opacity="1" stroke-width="2" stroke-linejoin="round" stroke-dasharray="8 4"/><rect y="24" width="100" height="120" rx="8" fill="var(--section_colors-tertiary)"/><rect x="1" y="25" width="98" height="118" rx="7" stroke="var(--section_colors-stroke)" stroke-opacity="1" stroke-width="2" stroke-linejoin="round" stroke-dasharray="8 4"/><g filter="url(#filter0_d)"><rect x="81" y="2" width="100" height="120" rx="8" fill="var(--section_colors-tertiary)"/><rect x="82" y="3" width="98" height="118" rx="7" stroke="var(--section_colors-stroke)" stroke-opacity="1" stroke-width="2" stroke-linejoin="round" stroke-dasharray="8 4"/></g><path d="M128.911 68.506c.028-1.6.217-2.864.566-3.793.35-.927 1.062-1.956 2.138-3.086l2.746-2.724c1.174-1.278 1.761-2.65 1.761-4.115 0-1.413-.384-2.516-1.153-3.31-.768-.806-1.886-1.21-3.354-1.21-1.425 0-2.571.364-3.437 1.09-.867.726-1.3 1.701-1.3 2.925H123c.028-2.179.831-3.934 2.411-5.266 1.593-1.345 3.661-2.017 6.204-2.017 2.641 0 4.696.686 6.163 2.058 1.481 1.358 2.222 3.228 2.222 5.608 0 2.354-1.132 4.674-3.396 6.96l-2.285 2.18c-1.02 1.09-1.53 2.656-1.53 4.7h-3.878zm-.167 6.396c0-.605.188-1.11.565-1.513.392-.417.965-.626 1.719-.626.755 0 1.328.209 1.719.626.392.403.587.908.587 1.513 0 .605-.195 1.11-.587 1.513-.391.39-.964.585-1.719.585-.754 0-1.327-.195-1.719-.585-.377-.404-.565-.908-.565-1.513z" fill="var(--section_colors-stroke)"/><defs><filter id="filter0_d" x="77" y="0" width="108" height="128" filterUnits="userSpaceOnUse" color-interpolation-filters="sRGB"><feFlood flood-opacity="0" result="BackgroundImageFix"/><feColorMatrix in="SourceAlpha" values="0 0 0 0 0 0 0 0 0 0 0 0 0 0 0 0 0 0 127 0"/><feOffset dy="2"/><feGaussianBlur stdDeviation="2"/><feColorMatrix values="0 0 0 0 0 0 0 0 0 0 0 0 0 0 0 0 0 0 0.25 0"/><feBlend in2="BackgroundImageFix" result="effect1_dropShadow"/><feBlend in="SourceGraphic" in2="effect1_dropShadow" result="shape"/></filter></defs></svg>